<?xml version="1.0" encoding="UTF-8" standalone="no"?>
<!-- Generator: Adobe Illustrator 28.3.0, SVG Export Plug-In . SVG Version: 6.00 Build 0)  -->

<svg
   version="1.1"
   id="Laag_1"
   x="0px"
   y="0px"
   viewBox="0 0 79.099999 41.299998"
   xml:space="preserve"
   sodipodi:docname="logo.svg"
   width="79.099998"
   height="41.299999"
   inkscape:version="1.1.2 (0a00cf5339, 2022-02-04)"
   xmlns:inkscape="http://www.inkscape.org/namespaces/inkscape"
   xmlns:sodipodi="http://sodipodi.sourceforge.net/DTD/sodipodi-0.dtd"
   xmlns="http://www.w3.org/2000/svg"
   xmlns:svg="http://www.w3.org/2000/svg"><defs
   id="defs21" /><sodipodi:namedview
   id="namedview19"
   pagecolor="#ffffff"
   bordercolor="#666666"
   borderopacity="1.0"
   inkscape:pageshadow="2"
   inkscape:pageopacity="0.0"
   inkscape:pagecheckerboard="0"
   showgrid="false"
   inkscape:zoom="8.1108311"
   inkscape:cx="39.638355"
   inkscape:cy="20.959628"
   inkscape:window-width="1402"
   inkscape:window-height="849"
   inkscape:window-x="0"
   inkscape:window-y="0"
   inkscape:window-maximized="0"
   inkscape:current-layer="Laag_1" />
<style
   type="text/css"
   id="style2">
	.st0{fill:#00A1E5;}
	.st1{fill:#143462;}
</style>
<g
   id="g8"
   transform="translate(-19.8,-18.7)">
	<path
   class="st0"
   d="M 98.9,39.3 C 98.9,28 89.7,18.7 78.4,18.7 h -6.7 c -1.2,0 -2.1,0.9 -2.1,2.1 0,1.2 0.9,2.1 2.1,2.1 h 6.6 c 9.1,0 16.4,7.4 16.4,16.4 0,9 -7.4,16.4 -16.4,16.4 H 55.4 V 52 h -4.2 v 8 h 27.1 v 0 C 89.7,59.9 98.9,50.7 98.9,39.3 Z"
   id="path4" />
	<path
   class="st0"
   d="m 19.8,39.3 c 0,11.3 9.2,20.6 20.5,20.6 H 47 c 1.2,0 2.1,-0.9 2.1,-2.1 0,-1.2 -0.9,-2.1 -2.1,-2.1 H 40.4 C 31.3,55.7 24,48.3 24,39.3 c 0,-9 7.4,-16.4 16.4,-16.4 h 22.9 v 3.8 h 4.2 v -8 H 40.3 v 0 C 29,18.7 19.8,28 19.8,39.3 Z"
   id="path6" />
</g>
<g
   id="g16"
   transform="translate(-19.8,-18.7)">
	<polygon
   class="st1"
   points="32.5,30.8 39.3,47.8 42.5,47.8 49.5,30.8 45.1,30.8 41.1,41.2 37.2,30.8 "
   id="polygon10" />
	<polygon
   class="st1"
   points="51.3,30.8 51.3,47.8 55.4,47.8 55.4,36.7 62.2,47.8 67.4,47.8 67.4,30.8 63.2,30.8 63.2,41.6 56.6,30.8 "
   id="polygon12" />
	<path
   class="st1"
   d="m 79.4,37.5 v 3.9 h 3 v 2.2 c -0.3,0.2 -0.7,0.3 -1.2,0.5 -0.5,0.2 -1.2,0.3 -2,0.3 -0.7,0 -1.4,-0.1 -2,-0.4 -0.6,-0.2 -1.1,-0.6 -1.5,-1 -0.4,-0.4 -0.8,-1 -1,-1.6 -0.2,-0.6 -0.3,-1.3 -0.3,-2 0,-0.7 0.1,-1.4 0.3,-2 0.2,-0.6 0.6,-1.2 1,-1.6 0.4,-0.4 0.9,-0.8 1.5,-1 0.6,-0.2 1.3,-0.4 2,-0.4 0.9,0 1.6,0.1 2.2,0.4 0.6,0.2 1.1,0.6 1.6,1.1 l 0.2,0.2 2.9,-3.2 -0.1,-0.4 c -0.9,-0.8 -1.9,-1.4 -3,-1.7 -1.1,-0.3 -2.4,-0.5 -3.7,-0.5 -1.3,0 -2.5,0.2 -3.7,0.6 -1.1,0.4 -2.1,1 -2.9,1.8 -0.8,0.8 -1.5,1.7 -1.9,2.8 -0.5,1.1 -0.7,2.3 -0.7,3.7 0,1.4 0.2,2.6 0.7,3.7 0.5,1.1 1.1,2.1 1.9,2.8 0.8,0.8 1.8,1.4 2.9,1.8 1.1,0.4 2.3,0.6 3.7,0.6 1.2,0 2.4,-0.1 3.6,-0.4 1.2,-0.3 2.3,-0.7 3.4,-1.2 l 0.1,-0.1 v -9.1 z"
   id="path14" />
</g>
</svg>
