<?xml version="1.0" encoding="UTF-8" standalone="no"?>
<svg
   id="Laag_1"
   viewBox="0 0 79.147078 41.261651"
   version="1.1"
   sodipodi:docname="logo_white.svg"
   width="79.147079"
   height="41.26165"
   inkscape:version="1.1.2 (0a00cf5339, 2022-02-04)"
   xmlns:inkscape="http://www.inkscape.org/namespaces/inkscape"
   xmlns:sodipodi="http://sodipodi.sourceforge.net/DTD/sodipodi-0.dtd"
   xmlns="http://www.w3.org/2000/svg"
   xmlns:svg="http://www.w3.org/2000/svg">
  <sodipodi:namedview
     id="namedview19"
     pagecolor="#ffffff"
     bordercolor="#666666"
     borderopacity="1.0"
     inkscape:pageshadow="2"
     inkscape:pageopacity="0.0"
     inkscape:pagecheckerboard="0"
     showgrid="false"
     inkscape:zoom="8.1138889"
     inkscape:cx="39.869908"
     inkscape:cy="20.951729"
     inkscape:window-width="1402"
     inkscape:window-height="849"
     inkscape:window-x="0"
     inkscape:window-y="0"
     inkscape:window-maximized="0"
     inkscape:current-layer="Laag_1" />
  <defs
     id="defs4">
    <style
       id="style2">.cls-1{fill:#fff;}</style>
  </defs>
  <path
     class="cls-1"
     d="M 79.14708,20.63087 C 79.14708,9.29498 69.96715,0 58.65905,0 h -6.74587 c -1.15374,0 -2.08907,0.9364 -2.08907,2.09158 0,1.15518 0.93532,2.09149 2.08907,2.09149 h 6.62694 c 9.05894,0 16.42883,7.37853 16.42883,16.4478 0,9.06927 -7.36989,16.4478 -16.42883,16.4478 H 35.67986 V 33.2554 h -4.17813 v 8.00625 h 27.09753 v -0.0015 C 69.93469,41.2279 79.14707,31.98674 79.14707,20.63087 Z"
     id="path6" />
  <path
     class="cls-1"
     d="m 0,20.63087 c 0,11.33598 9.18011,20.56607 20.48803,20.63078 h 6.74587 c 1.15384,0 2.08907,-0.93631 2.08907,-2.09149 0,-1.15518 -0.93523,-2.09149 -2.08907,-2.09149 h -6.62694 c -9.05884,0 -16.42883,-7.37844 -16.42883,-16.4478 0,-9.06936 7.36998,-16.4478 16.42883,-16.4478 h 22.86017 v 3.82327 h 4.17822 V 0 H 20.54782 V 0.0015 C 9.2123,0.03384 10e-6,9.275 10e-6,20.63087 Z"
     id="path8" />
  <g
     id="g16"
     transform="translate(-19.76963,-18.70093)">
    <polygon
       class="cls-1"
       points="32.47203,30.81456 39.2632,47.82393 42.53334,47.82393 49.54079,30.81456 45.06746,30.81456 41.09868,41.1714 37.19687,30.81456 "
       id="polygon10" />
    <polygon
       class="cls-1"
       points="51.27703,30.81456 51.27703,47.82393 55.44474,47.82393 55.44474,36.72104 62.24418,47.82393 67.40733,47.82393 67.40733,30.81456 63.23963,30.81456 63.23963,41.63748 56.62608,30.81456 "
       id="polygon12" />
    <path
       class="cls-1"
       d="m 79.43482,37.48416 v 3.90421 h 2.95807 v 2.24204 c -0.30997,0.15322 -0.70646,0.30527 -1.18263,0.45317 -0.54522,0.16956 -1.2077,0.25591 -1.96869,0.25591 -0.73657,0 -1.41031,-0.12624 -2.00194,-0.3753 -0.59099,-0.24806 -1.10422,-0.59918 -1.5264,-1.04387 -0.4229,-0.44496 -0.75225,-0.9789 -0.97812,-1.58619 -0.22831,-0.61091 -0.3444,-1.2968 -0.3444,-2.03792 0,-0.72542 0.11609,-1.40761 0.3444,-2.02728 0.22587,-0.61361 0.55522,-1.15089 0.97812,-1.59657 0.42165,-0.44406 0.93541,-0.79517 1.5264,-1.04387 0.5928,-0.24906 1.26601,-0.3753 2.00194,-0.3753 0.89024,0 1.63808,0.12624 2.22214,0.37467 0.58532,0.24933 1.11928,0.62119 1.5885,1.10478 l 0.20136,0.20791 2.94058,-3.21209 -0.19892,-0.18499 c -0.86582,-0.80239 -1.88648,-1.37648 -3.03333,-1.70594 -1.12991,-0.32404 -2.38149,-0.48827 -3.72033,-0.48827 -1.31567,0 -2.54589,0.20944 -3.65822,0.623 -1.11675,0.41554 -2.09604,1.01977 -2.91102,1.79509 -0.81552,0.77667 -1.46051,1.73021 -1.91595,2.83373 -0.45418,1.10135 -0.68447,2.34473 -0.68447,3.69513 0,1.35067 0.23029,2.59406 0.68447,3.69577 0.45607,1.10388 1.10043,2.05732 1.91595,2.83337 0.81498,0.77568 1.79428,1.37991 2.91102,1.79509 1.11233,0.41356 2.34255,0.623 3.65822,0.623 1.22455,0 2.44296,-0.12742 3.62055,-0.379 1.182,-0.25185 2.33382,-0.6683 3.42298,-1.23707 l 0.14683,-0.07661 v -9.06661 h -6.99711 z"
       id="path14" />
  </g>
</svg>
